<svg style="width: 20px !important; height: 20px !important;" viewBox="0 0 20 20" version="1.1" xmlns="http://www.w3.org/2000/svg" xmlns:xlink="http://www.w3.org/1999/xlink"><g id="Page-1" stroke="none" stroke-width="1" style="fill: #BFBFBF !important;" fill-rule="evenodd"><g id="Warning-Dropdown" transform="translate(-1267.000000, -400.000000)" style="fill: #BFBFBF !important;" fill-rule="nonzero"><g id="Group-12" style="fill: #BFBFBF !important;" transform="translate(1236.000000, 381.000000)"><g id="Group-15" style="fill: #BFBFBF !important;" transform="translate(31.000000, 19.000000)"><g style="fill: #BFBFBF !important;" id="Group-13"><g style="fill: #BFBFBF !important;" id="checkmark-circle-2"><g style="fill: #BFBFBF !important;" id="Group-6"><path d="M10.0067523,11.2441541 C9.76675229,11.0841541 9.60675229,11.0041541 9.36675229,10.8441541 C8.48675229,10.2841541 7.68675229,9.80415408 6.80675229,9.24415408 C6.24675229,8.92415408 6.16675229,8.92415408 5.92675229,9.48415408 C5.68675229,9.88415408 5.52675229,10.2841541 5.20675229,10.6041541 C4.96675229,11.0041541 5.04675229,11.1641541 5.44675229,11.4041541 C6.96675229,12.2841541 8.48675229,13.1641541 9.92675229,14.0441541 C10.4067523,14.3641541 10.6467523,14.2841541 10.9667523,13.8841541 C12.4067523,12.0441541 13.8467523,10.1241541 15.2067523,8.28415408 C16.0867523,7.08415408 16.9667523,5.88415408 17.8467523,4.68415408 C18.0867523,4.44415408 18.0067523,4.20415408 17.7667523,3.88415408 C16.9667523,2.92415408 16.0867523,2.04415408 14.9667523,1.40415408 C10.7267523,-1.15584592 4.96675229,-0.195845919 1.84675229,4.12415408 C-1.43324771,8.68415408 -0.233247706,15.3241541 4.56675229,18.2841541 C8.08675229,20.5241541 12.4067523,20.3641541 15.7667523,17.9641541 C19.0467523,15.6441541 20.5667523,11.5641541 19.6067523,7.56415408 C19.5267523,7.08415408 19.2867523,6.60415408 19.1267523,6.04415408 C18.9667523,6.12415408 18.8067523,6.20415408 18.7267523,6.28415408 C18.2467523,6.92415408 17.7667523,7.56415408 17.2867523,8.20415408 C17.2067523,8.28415408 17.2067523,8.44415408 17.2067523,8.52415408 C17.2067523,9.08415408 17.2867523,9.56415408 17.2867523,10.1241541 C17.2067523,13.0841541 15.2067523,15.8841541 12.4067523,16.8441541 C9.36675229,17.8841541 6.16675229,17.0041541 4.24675229,14.6841541 C1.92675229,11.8041541 2.08675229,7.56415408 4.72675229,4.92415408 C7.44675229,2.12415408 11.6067523,1.88415408 14.7267523,4.28415408 C14.9667523,4.44415408 15.0467523,4.60415408 14.8067523,4.92415408 C14.2467523,5.64415408 13.6867523,6.44415408 13.1267523,7.16415408 C12.0867523,8.44415408 11.1267523,9.80415408 10.0067523,11.2441541" id="Fill-1"/></g></g></g></g></g></g></g></svg>