<svg style="width: 10px !important; height: 11px !important;" viewBox="0 0 10 11" version="1.1" xmlns="http://www.w3.org/2000/svg" xmlns:xlink="http://www.w3.org/1999/xlink"><title>F3DA0441-0872-49D1-8FF9-8035CB8E21E7</title><g id="Page-1" stroke="none" stroke-width="1" fill="none" fill-rule="evenodd"><g id="Alternative-Layout:-Tweaks-for-new-seller" transform="translate(-1129.000000, -355.000000)" fill="#000000" fill-rule="nonzero"><g id="Group-36" transform="translate(475.000000, 305.000000)"><g id="Group-37" transform="translate(40.000000, 40.000000)"><g id="Group-30" transform="translate(603.000000, 0.000000)"><g id="close" transform="translate(11.000000, 10.400000)"><path d="M5.95815331,5.67367887 C5.9385621,5.65413712 5.9275517,5.62760312 5.9275517,5.59993193 C5.9275517,5.57226073 5.9385621,5.54572673 5.95815331,5.52618499 L9.81757651,1.66717843 C10.0616072,1.42280257 10.0613274,1.02687083 9.81695153,0.782840131 C9.57257567,0.538809435 9.17664393,0.539089242 8.93261323,0.783465095 L5.07360667,4.64080505 C5.05406493,4.66039626 5.02753093,4.67140666 4.99985973,4.67140666 C4.97218853,4.67140666 4.94565454,4.66039626 4.92611279,4.64080505 L1.06710624,0.783465095 C0.823075538,0.539319342 0.427330331,0.539226072 0.183184577,0.783256771 C-0.0609611763,1.02728747 -0.0610544465,1.42303268 0.182976253,1.66717843 L4.04156616,5.52618499 C4.06115737,5.54572673 4.07216776,5.57226073 4.07216776,5.59993193 C4.07216776,5.62760312 4.06115737,5.65413712 4.04156616,5.67367887 L0.182976253,9.53310207 C0.0251160696,9.69103668 -0.0364956433,9.92119169 0.0213496498,10.1368699 C0.0791949428,10.3525482 0.247709166,10.520983 0.463414642,10.5787266 C0.679120118,10.6364702 0.909246054,10.57475 1.06710624,10.4168154 L4.92611279,6.5573922 C4.94565454,6.53780099 4.97218853,6.5267906 4.99985973,6.5267906 C5.02753093,6.5267906 5.05406493,6.53780099 5.07360667,6.5573922 L8.93261323,10.4168154 C9.17664393,10.6609612 9.57238913,10.6610544 9.81653488,10.4170237 C10.0606806,10.172993 10.0607739,9.77724783 9.81674321,9.53310207 L5.95815331,5.67367887 Z" id="Path"/></g></g></g></g></g></g></svg>