<svg style="min-width: 20px !important; width: 16px !important; height: 16px !important;" viewBox="0 0 16 16" version="1.1" xmlns="http://www.w3.org/2000/svg" xmlns:xlink="http://www.w3.org/1999/xlink"><title>37457B94-CAE8-4AF6-BC0E-DFB9ECF6E7C1</title><g id="Page-1" stroke="none" stroke-width="1" style="fill: #D14419 !important;" fill-rule="evenodd"><g id="Shopify-var-4" transform="translate(-1024.000000, -134.000000)" style="fill: #D14419 !important;" fill-rule="nonzero"><g id="Group-2" style="fill: #D14419 !important;" transform="translate(998.000000, 115.000000)"><g id="Group-12" style="fill: #D14419 !important;" transform="translate(0.000000, 17.000000)"><g id="Group-10" style="fill: #D14419 !important;" transform="translate(26.000000, 0.000000)"><g id="mood-question" style="fill: #D14419 !important;" transform="translate(0.000000, 2.000000)"><path d="M16.0000217,8 C16.0040171,6.90623851 15.4491122,5.88618901 14.5286667,5.29533333 C14.7575743,4.22709977 14.4293495,3.11565642 13.6568465,2.34315346 C12.8843436,1.5706505 11.7729002,1.24242569 10.7046667,1.47133333 C10.1111776,0.554094981 9.09316629,0.000260270272 8.00066667,0.000260270272 C6.90816704,0.000260270272 5.8901557,0.554094981 5.29666667,1.47133333 C4.22833334,1.24215635 3.11666572,1.57026064 2.34398652,2.34280515 C1.57130733,3.11534967 1.24300926,4.22696008 1.472,5.29533333 C0.554476836,5.8889271 0.000457130313,6.90720436 0.000457130313,8 C0.000457130313,9.09279564 0.554476836,10.1110729 1.472,10.7046667 C1.24309235,11.7729002 1.57131717,12.8843436 2.34382013,13.6568465 C3.11632309,14.4293495 4.22776644,14.7575743 5.296,14.5286667 C5.88948904,15.445905 6.90750037,15.9997397 8,15.9997397 C9.09249963,15.9997397 10.110511,15.445905 10.704,14.5286667 C11.77231,14.7572865 12.883686,14.4288644 13.6561318,13.6562839 C14.4285777,12.8837033 14.756806,11.7722702 14.528,10.704 C15.4484999,10.1134293 16.0036434,9.09365464 16.0000217,8 Z M8.66666667,8.91533333 L8.66666667,9.33333333 C8.66666667,9.70152317 8.36818983,10 8,10 C7.63181017,10 7.33333333,9.70152317 7.33333333,9.33333333 L7.33333333,8.33333333 C7.33333333,7.9651435 7.63181017,7.66666667 8,7.66666667 C8.73637967,7.66666667 9.33333333,7.069713 9.33333333,6.33333333 C9.33333333,5.59695367 8.73637967,5 8,5 C7.26362033,5 6.66666667,5.59695367 6.66666667,6.33333333 C6.66666667,6.70152317 6.36818983,7 6,7 C5.63181017,7 5.33333333,6.70152317 5.33333333,6.33333333 C5.33333333,4.94754332 6.39479043,3.79270922 7.77566817,3.67613042 C9.15654591,3.55955162 10.3965844,4.52008544 10.6289212,5.88626023 C10.861258,7.25243502 10.0084521,8.56888583 8.66666667,8.91533333 Z M8,12.8333333 C7.44771525,12.8333333 7,12.3856181 7,11.8333333 C7,11.2810486 7.44771525,10.8333333 8,10.8333333 C8.55228475,10.8333333 9,11.2810486 9,11.8333333 C9,12.3856181 8.55228475,12.8333333 8,12.8333333 Z" id="Shape"/></g></g></g></g></g></g></svg>