<svg style="width:21px !important; height:23px !important; fill:#D14419 !important;" viewBox="0 0 21 23" version="1.1" xmlns="http://www.w3.org/2000/svg" xmlns:xlink="http://www.w3.org/1999/xlink"><title>0317C5D4-582A-4435-81D2-2B7EAA3AD248</title><g id="Page-1" stroke="none" stroke-width="1" style="fill: #D14419 !important;" fill-rule="evenodd"><g id="Shopify-var-4" transform="translate(-1189.000000, -937.000000)" style="fill: #D14419 !important;" fill-rule="nonzero"><g id="Group-6" style="fill: #D14419 !important;" transform="translate(1177.000000, 927.000000)"><path d="M22.5,10.0009405 C25.791438,9.97205038 29.0518044,10.6090647 32.0654138,11.8698426 C32.6393898,12.1234908 33.0047596,12.6731833 32.9999531,13.2757691 L32.9999531,13.2757691 L32.9999531,20.9123693 C33.008579,25.9842093 29.7433979,30.539709 24.7805794,32.3797691 L24.7805794,32.3797691 L23.6602395,32.7937474 C22.9136976,33.0687509 22.0863024,33.0687509 21.3397605,32.7937474 L21.3397605,32.7937474 L20.2194206,32.3797691 C15.2566021,30.539709 11.991421,25.9842093 12.0000469,20.9123693 L12.0000469,20.9123693 L12.0000469,13.2757691 C11.9952404,12.6731833 12.3606102,12.1234908 12.9345862,11.8698426 C15.9481956,10.6090647 19.208562,9.97205038 22.5,10.0009405 Z M16.6233455,16.847705 C14.3147539,19.9963592 15.1593606,24.5812415 18.5377873,26.6251047 C21.0153002,28.171812 24.0558842,28.0613329 26.4207829,26.4041466 C28.7293745,24.8021997 29.7992096,21.9849828 29.1235242,19.2230055 C29.0672171,18.8915682 28.8982958,18.560131 28.7856816,18.1734541 C28.6730673,18.2286937 28.5604531,18.2839332 28.504146,18.3391728 C28.1663033,18.7810891 27.8284607,19.2230055 27.490618,19.6649219 C27.4343109,19.7201614 27.4343109,19.8306405 27.4343109,19.8858801 C27.4343109,20.2725569 27.490618,20.6039942 27.490618,20.990671 C27.4343109,23.0345342 26.0266331,24.9679183 24.0558842,25.6307929 C21.916214,26.348907 19.6639295,25.741272 18.3125588,24.1393251 C16.6796526,22.1507015 16.7922668,19.2230055 18.6504015,17.4001005 C20.5648433,15.4667164 23.4928131,15.3009977 25.6887904,16.9581841 C25.8577118,17.0686632 25.9140189,17.1791423 25.7450976,17.4001005 C25.3509478,17.8972564 24.956798,18.4496519 24.5626482,18.9468078 C23.8306558,19.8306405 23.1549704,20.7697128 22.3666709,21.7640247 C22.1977495,21.6535456 22.0851353,21.598306 21.916214,21.4878269 C21.2968357,21.1011501 20.7337646,20.7697128 20.1143864,20.383036 C19.7202366,20.1620778 19.6639295,20.1620778 19.4950082,20.5487546 C19.3260869,20.8249524 19.2134726,21.1011501 18.9882442,21.3221083 C18.8193228,21.598306 18.87563,21.7087851 19.1571655,21.8745037 C20.2270006,22.4821388 21.2968357,23.0897738 22.3103638,23.6974088 C22.6482064,23.918367 22.8171278,23.8631274 23.0423562,23.5869297 C24.0558842,22.3164201 25.0694122,20.990671 26.0266331,19.7201614 L27.8847678,17.2343818 L27.8847678,17.2343818 C28.0536891,17.0686632 27.997382,16.9029446 27.8284607,16.6819864 C27.2653896,16.0191118 26.6460113,15.4114768 25.8577118,14.9695604 C22.8734349,13.2018949 18.8193228,13.8647695 16.6233455,16.847705 Z" id="Shape"/></g></g></g></svg>