<svg style="width: 16px !important; height: 16px !important;" viewBox="0 0 16 16" version="1.1" xmlns="http://www.w3.org/2000/svg" xmlns:xlink="http://www.w3.org/1999/xlink"><title>4CAD0F70-DFFC-4665-A629-11A9D15899DE</title><g id="Page-1" stroke="none" stroke-width="1" style="fill: #0F1111 !important;" fill-rule="evenodd"><g id="Top-Pos" transform="translate(-1483.000000, -182.000000)" style="fill: #0F1111 !important;"><g id="Group-4" transform="translate(351.000000, 163.000000)"><g id="Group-7" transform="translate(1111.000000, 0.000000)"><g id="cog" transform="translate(21.000000, 19.000000)"><path d="M9.4892,1.17094 C9.1102,-0.39031 6.8898,-0.39031 6.51078,1.17094 C6.26594,2.17949 5.11045,2.65811 4.22416,2.11809 C2.85218,1.28212 1.28212,2.85218 2.11809,4.22416 C2.65811,5.11045 2.17949,6.26593 1.17094,6.51078 C-0.39031,6.8898 -0.39031,9.1102 1.17094,9.4892 C2.17949,9.7341 2.65811,10.8896 2.11809,11.7758 C1.28212,13.1478 2.85218,14.7179 4.22417,13.8819 C5.11045,13.3419 6.26594,13.8205 6.51078,14.8291 C6.8898,16.3903 9.1102,16.3903 9.4892,14.8291 C9.7341,13.8205 10.8896,13.3419 11.7758,13.8819 C13.1478,14.7179 14.7179,13.1478 13.8819,11.7758 C13.3419,10.8896 13.8205,9.7341 14.8291,9.4892 C16.3903,9.1102 16.3903,6.8898 14.8291,6.51078 C13.8205,6.26593 13.3419,5.11045 13.8819,4.22416 C14.7179,2.85218 13.1478,1.28212 11.7758,2.11809 C10.8896,2.65811 9.7341,2.17949 9.4892,1.17094 Z M8,11 C9.6569,11 11,9.6569 11,8 C11,6.34315 9.6569,5 8,5 C6.34315,5 5,6.34315 5,8 C5,9.6569 6.34315,11 8,11 Z" id="Shape"/></g></g></g></g></g></svg>